<?xml version="1.0" encoding="utf-8"?>
<!-- Generator: Adobe Illustrator 15.0.0, SVG Export Plug-In . SVG Version: 6.00 Build 0)  -->
<!DOCTYPE svg PUBLIC "-//W3C//DTD SVG 1.1//EN" "http://www.w3.org/Graphics/SVG/1.1/DTD/svg11.dtd">
<svg version="1.1" id="Layer_1" xmlns="http://www.w3.org/2000/svg" xmlns:xlink="http://www.w3.org/1999/xlink" x="0px" y="0px"
	 width="612px" height="655.577px" viewBox="0 0 612 655.577" enable-background="new 0 0 612 655.577" xml:space="preserve">
<g>
	<path fill="none" stroke="#FFFFFF" stroke-width="9" stroke-miterlimit="10" d="M501.604,188.784
		c0,21.42-17.365,38.786-38.786,38.786c-21.422,0-38.787-17.366-38.787-38.786c0-21.418,17.365-38.786,38.787-38.786
		C484.238,149.998,501.604,167.366,501.604,188.784z"/>
	<polygon fill="#FFFFFF" points="504.159,144.863 518.307,125.914 522.161,130.159 506.807,146.904 	"/>
	<polygon fill="#FFFFFF" points="517.509,158.281 538.266,146.95 540.932,151.614 519.067,161.24 	"/>
	<polygon fill="#FFFFFF" points="522.845,178.092 546.255,181.433 546.42,187.358 522.321,181.395 	"/>
	<g>
		<g>
			<path fill="#FFFFFF" d="M424.209,82.744c-12.191-6.797-26.06-10.244-41.221-10.244c-34.386,0-75.414,18.229-115.529,51.332
				c-17.129,14.133-33.688,30.52-49.386,48.779h8.467c21.732-24.003,44.936-44.003,68.548-58.819
				c46.087-28.919,88.008-34.545,118.044-15.84c10.337,6.438,18.978,15.619,25.686,27.3c25.258,43.979,21.24,118.544-7.673,196.214
				h19.532c14.176-39.661,22.36-78.706,23.705-114.425C476.673,146.204,458.853,102.061,424.209,82.744z"/>
		</g>
	</g>
	<g>
		<g>
			<path fill="#FFFFFF" d="M308.928,508.059c-14.267,13.128-28.958,24.503-43.812,33.823
				c-46.086,28.921-88.008,34.547-118.04,15.846c-10.341-6.438-18.981-15.622-25.688-27.303
				c-22.418-39.033-21.78-102.163-1.137-170.173h-7.148c-10.934,34.27-17.271,67.809-18.439,98.837
				c-2.289,60.837,15.53,104.981,50.172,124.297c12.192,6.8,26.061,10.245,41.222,10.245c34.385,0,75.416-18.23,115.53-51.333
				c12.448-10.271,24.595-21.736,36.33-34.239H308.928z"/>
		</g>
	</g>
	<path fill="none" stroke="#FFFFFF" stroke-width="10" stroke-miterlimit="10" d="M168.552,287.006h18.452
		c17.48-1.048,17.157-17.472,17.157-17.472v-52.056c0-27.247-11.331-25.047-11.331-25.047h-26.058v137.164"/>
	<path fill="none" stroke="#FFFFFF" stroke-width="10" stroke-miterlimit="10" d="M329.57,211.713v-12.34c0,0,0-9.03-20.686-8.736
		c0,0-18.1,0.001-18.1,10.536l1.386,109.049c0,0-0.462,17.044,16.989,17.044c0,0,20.41,2.306,20.41-9.08v-10.929"/>
	<g>
		
			<line fill="none" stroke="#FFFFFF" stroke-width="10" stroke-miterlimit="10" x1="206.835" y1="329.515" x2="243.422" y2="189.232"/>
		
			<line fill="none" stroke="#FFFFFF" stroke-width="10" stroke-miterlimit="10" x1="243.422" y1="190.633" x2="280.214" y2="328.464"/>
		
			<line fill="none" stroke="#FFFFFF" stroke-width="10" stroke-miterlimit="10" x1="220.55" y1="277.981" x2="261.415" y2="259.086"/>
	</g>
	<path fill="none" stroke="#FFFFFF" stroke-width="10" stroke-miterlimit="10" d="M142.667,207.955c0,0,1.048-15.602-9.697-15.602
		h-18.345c0,0-11.007-0.271-11.007,15.602l0.031,29.547c0,0-0.557,10.32,7.832,14.84l27.787,18.287c0,0,6.543,3.751,6.543,16.724
		l0.027,25.027c0,0,0.002,14.776-12.592,14.762h-18.359c0,0-12.579,0.792-12.579-9.43V304.53"/>
	<g>
		<polyline fill="none" stroke="#FFFFFF" stroke-width="10" stroke-miterlimit="10" points="385.475,191.604 347.389,191.604 
			347.389,326.409 387.571,326.409 		"/>
		
			<line fill="none" stroke="#FFFFFF" stroke-width="10" stroke-miterlimit="10" x1="387.571" y1="258.334" x2="347.389" y2="258.334"/>
	</g>
	<g>
		
			<line fill="none" stroke="#FFFFFF" stroke-width="10" stroke-miterlimit="10" x1="181.274" y1="486.246" x2="217.861" y2="345.965"/>
		
			<line fill="none" stroke="#FFFFFF" stroke-width="10" stroke-miterlimit="10" x1="217.861" y1="347.365" x2="254.653" y2="485.196"/>
		
			<line fill="none" stroke="#FFFFFF" stroke-width="10" stroke-miterlimit="10" x1="194.99" y1="434.713" x2="235.854" y2="415.817"/>
	</g>
	<path fill="none" stroke="#FFFFFF" stroke-width="10" stroke-miterlimit="10" d="M272.694,442.609h18.452
		c17.48-1.048,17.157-17.471,17.157-17.471v-52.057c0-27.246-11.331-25.045-11.331-25.045h-26.059v137.162"/>
	<path fill="none" stroke="#FFFFFF" stroke-width="10" stroke-miterlimit="10" d="M331.048,442.609H349.5
		c17.48-1.048,17.157-17.471,17.157-17.471v-52.057c0-27.246-11.331-25.045-11.331-25.045h-26.058v137.162"/>
	<path fill="none" stroke="#FFFFFF" stroke-width="10" stroke-miterlimit="10" d="M421.851,364.018c0,0,1.049-15.602-9.696-15.602
		H393.81c0,0-11.007-0.269-11.007,15.602l0.031,29.548c0,0-0.558,10.319,7.831,14.839l27.787,18.288c0,0,6.544,3.748,6.544,16.721
		l0.026,25.027c0,0,0.002,14.778-12.592,14.765h-18.359c0,0-12.579,0.792-12.579-9.431v-13.184"/>
	<g>
		<path fill="none" stroke="#FFFFFF" stroke-width="4" stroke-miterlimit="10" d="M380.069,137.631c0,0,1.658-3.921-2-4.435
			l-7.496-0.019c0,0-3.264,0.116-3.795,2.586l-0.977,4.604c0,0-0.537,1.583,2.16,2.685l8.853,4.178c0,0,2.094,0.898,1.667,2.92
			l-0.834,3.899c0,0-0.708,2.789-5.041,2.675l-9.158-0.21c0,0-1.788-0.315-0.949-2.599l0.599-3.174"/>
		
			<line fill="none" stroke="#FFFFFF" stroke-width="4" stroke-miterlimit="10" x1="345.446" y1="131.679" x2="339.008" y2="157.935"/>
		
			<line fill="none" stroke="#FFFFFF" stroke-width="4" stroke-miterlimit="10" x1="359.901" y1="131.679" x2="353.461" y2="157.935"/>
		
			<line fill="none" stroke="#FFFFFF" stroke-width="4" stroke-miterlimit="10" x1="341.319" y1="145.022" x2="356.015" y2="145.022"/>
	</g>
	<g>
		<path fill="none" stroke="#FFFFFF" stroke-width="4" stroke-miterlimit="10" d="M230.22,512.555l0.454-2.703
			c0,0,0.978-2.719-5.619-2.617c0,0-6.777-0.364-6.846,1.927l-3.857,17.27c0,0-1.057,3.862,5.41,4.756c0,0,3.565-0.044,6.631-1.254
			l0.528-3.377"/>
		<g>
			
				<line fill="none" stroke="#FFFFFF" stroke-width="4" stroke-miterlimit="10" x1="164.216" y1="531.958" x2="169.263" y2="506.422"/>
			
				<line fill="none" stroke="#FFFFFF" stroke-width="4" stroke-miterlimit="10" x1="169.294" y1="507.638" x2="179.958" y2="530.896"/>
			
				<line fill="none" stroke="#FFFFFF" stroke-width="4" stroke-miterlimit="10" x1="179.959" y1="531.538" x2="185.248" y2="506.559"/>
		</g>
		<g>
			
				<line fill="none" stroke="#FFFFFF" stroke-width="4" stroke-miterlimit="10" x1="190.658" y1="506.941" x2="198.238" y2="520.751"/>
			
				<line fill="none" stroke="#FFFFFF" stroke-width="4" stroke-miterlimit="10" x1="213.045" y1="506.941" x2="198.049" y2="520.411"/>
			
				<line fill="none" stroke="#FFFFFF" stroke-width="4" stroke-miterlimit="10" x1="198.238" y1="518.652" x2="194.973" y2="531.978"/>
		</g>
	</g>
</g>
</svg>
