<?xml version="1.0" encoding="utf-8"?>
<!-- Generator: Adobe Illustrator 19.2.0, SVG Export Plug-In . SVG Version: 6.00 Build 0)  -->
<svg version="1.1" id="Layer_1" xmlns="http://www.w3.org/2000/svg" xmlns:xlink="http://www.w3.org/1999/xlink" x="0px" y="0px"
	width="271" height="32"
	 viewBox="0 0 504 60.6" style="enable-background:new 0 0 504 60.6;" xml:space="preserve">
<style type="text/css">
	.st0{fill:#FFFFFF;}
	.st1{fill:#03BDDE;}
</style>
<g>
	<g>
		<g>
			<g>
				<path class="st0" d="M306.3,30c0-10,1.4-21.9,17-21.9c11,0,15,5.8,15,14.1h-8.6c0-5.6-3.2-7.8-6.4-7.8c-6.1,0-7.9,2-7.8,15.6
					c0,12.7,1.8,15.6,7.8,15.6c5,0,6.4-5.1,6.5-8.5h9.1c0,9.7-5.5,14.8-15.6,14.8C307.3,51.9,306.3,39.2,306.3,30z"/>
			</g>
		</g>
		<path class="st0" d="M120.7,16.4h-11.9v35.2h-8.9V16.4H88.1V8.9h32.6V16.4z"/>
		<path class="st0" d="M159.7,51.5h-8.9V33.7h-15.4v17.8h-8.9V8.9h8.9v17.4h15.4V8.9h8.9V51.5z"/>
		<path class="st0" d="M204,51.5h-9.3l-2.7-7.5H176l-2.7,7.5H164l16.5-42.6h6.9L204,51.5z M189.8,37l-5.6-15.5L178.5,37H189.8z"/>
		<path class="st0" d="M235.6,51.5h-27.2V8.9h8.9v35.2h18.3V51.5z"/>
		<path class="st0" d="M281.4,51.5h-8.9V26.7l-8.7,16.2h-6l-8.7-16.2v24.8h-8.9V8.9h8.8l11.8,23l11.8-23h8.8V51.5z"/>
		<path class="st0" d="M299.6,51.5h-8.9V8.9h8.9V51.5z"/>
	</g>
	<g>
		<path class="st0" d="M376.2,51.5h-28.1V8.9h4.9v38.5h23.2V51.5z"/>
		<path class="st0" d="M409.9,51.5h-5.2l-3.6-9.6h-19.8l-3.6,9.6h-5.1l16.7-42.6h4.1L409.9,51.5z M399.7,37.9l-8.4-22.5l-8.6,22.5
			H399.7z"/>
		<path class="st0" d="M447.1,39.7c0,2.5-0.6,4.7-1.7,6.5c-1.1,1.8-2.7,3.1-4.7,4c-2,0.9-4.4,1.3-7.1,1.3H416V8.9h17.1
			c2,0,3.8,0.3,5.5,0.8c1.7,0.5,3.1,1.3,4.2,2.2c1.1,1,2,2.2,2.7,3.6c0.7,1.4,1,3,1,4.8c0,1.5-0.3,2.8-0.9,4.1
			c-0.6,1.3-1.4,2.3-2.4,3.2c-1,0.9-2.2,1.6-3.4,2c1.5,0.5,2.8,1.2,3.9,2.2c1.1,1,2,2.1,2.6,3.5C446.8,36.6,447.1,38.1,447.1,39.7z
			 M441.6,20.4c0-2.5-0.8-4.3-2.4-5.5c-1.6-1.2-3.8-1.8-6.5-1.8h-11.9v14.8h11.9c2.7,0,4.8-0.6,6.4-1.9
			C440.8,24.6,441.6,22.8,441.6,20.4z M442.3,39.6c0-1.6-0.4-3-1.1-4.1c-0.7-1.2-1.8-2.1-3.2-2.7c-1.4-0.6-3-0.9-4.8-0.9h-12.3v15.6
			h12.3c2.8,0,5-0.7,6.7-2.1C441.5,43.9,442.3,42,442.3,39.6z"/>
		<path class="st0" d="M483.4,39.8c0,2.5-0.6,4.6-1.9,6.4c-1.3,1.8-3.1,3.2-5.5,4.2c-2.4,1-5.1,1.5-8.3,1.5c-2.3,0-4.3-0.2-6.1-0.6
			c-1.8-0.4-3.5-1-5-1.8c-1.5-0.8-3-1.9-4.4-3.2l3.3-3.1c1.2,1.1,2.5,2.1,3.7,2.8c1.2,0.7,2.6,1.2,3.9,1.5c1.4,0.3,2.9,0.4,4.7,0.4
			c3.3,0,6-0.7,7.9-2.1c1.9-1.4,2.8-3.3,2.8-5.8c0-1.1-0.2-2.1-0.6-3.1c-0.4-1-0.9-1.7-1.6-2.2c-0.7-0.6-1.4-1-2.2-1.3
			c-0.8-0.3-2-0.5-3.7-0.7l-5.3-0.8c-3.6-0.5-6.4-1.6-8.3-3.2c-2.3-1.9-3.5-4.6-3.5-8c0-2.4,0.6-4.4,1.7-6.3
			c1.2-1.8,2.9-3.2,5.1-4.2c2.2-1,4.8-1.5,7.7-1.5c2.9,0,5.3,0.4,7.4,1.1c2.1,0.7,4.1,1.9,6.1,3.6l-3.1,2.9c-1.4-1.2-3-2.1-4.7-2.7
			c-1.7-0.6-3.6-0.9-5.9-0.9c-2,0-3.7,0.3-5.1,1c-1.4,0.7-2.5,1.6-3.3,2.7c-0.8,1.2-1.1,2.6-1.1,4.2c0,2.2,0.7,3.8,2,4.9
			c1.4,1.2,3.5,1.9,6.1,2.3l5,0.7c2,0.3,3.6,0.6,4.9,1.1c1.3,0.5,2.4,1.1,3.4,1.9C482.1,33.4,483.4,36.2,483.4,39.8z"/>
	</g>
</g>
<g>
	<path class="st0" d="M491.3,17.8h-1.5v-7.5h-2.5V9h6.6v1.3h-2.6V17.8z M498.6,17.8l-2.4-6.8h-0.1l0.1,1.6v5.2h-1.4V9h2.3l2.4,6.8
		l2.5-6.8h2.2v8.7h-1.5v-5.1l0.1-1.7h-0.1l-2.6,6.8H498.6z"/>
</g>
<g>
	<path class="st1" d="M76.2,23.1c0-7.6-2.2-14.9-6.4-21.3C69,0.7,67.6,0,66.2,0c-1,0-1.9,0.3-2.7,0.9c-2,1.5-2.4,4.3-1,6.2l0,0.1
		c3.1,4.8,4.7,10.3,4.7,15.9c0,5.6-1.6,11.1-4.7,15.9l0,0c-0.5,0.7-1.6,0.8-2.3,0.3c-0.4-0.3-0.6-0.7-0.7-1.1
		c-0.1-0.4,0-0.9,0.3-1.2l0-0.1c2.6-4.2,4-8.9,4-13.9c0-4.9-1.4-9.7-3.9-13.8l0-0.1c-0.8-1.1-2.2-1.8-3.6-1.8c-1,0-1.9,0.3-2.7,0.9
		c-1,0.7-1.6,1.8-1.8,2.9c-0.2,1.2,0.1,2.4,0.8,3.4c1.5,2.6,2.3,5.5,2.3,8.5c0,3-0.8,5.9-2.2,8.5l0,0c-0.5,0.7-1.6,0.9-2.3,0.3
		c-0.8-0.6-0.9-1.5-0.4-2.4l0.1-0.1c1-2,1.6-4.1,1.6-6.4c0-2.2-0.5-4.5-1.6-6.4c-0.7-1.3-2.1-2.1-3.5-2.1c-0.7,0-1.4,0.2-2.1,0.6
		c-1.1,0.6-1.7,2.4-1.6,5.2l0,40.3l0.4,0c18.9-2.2,33.2-18.2,33.3-37.2L76.2,23.1L76.2,23.1z M73.4,23.4c-0.1,16.6-11.8,30.8-28,34
		V20.5c0-0.1,0-0.2,0-0.4c0-0.7,0-2.4,0.4-2.6c0.1-0.1,0.3-0.1,0.4-0.1c0.4,0,0.9,0.3,1.3,0.9c0.6,0.8,1.1,3.1,1.1,4.8
		c0,1.7-0.4,3.3-1.1,4.8l0,0.1c-1.3,2.3-0.9,4.8,1,6.3c0.8,0.6,1.7,0.9,2.7,0.9c1.4,0,2.8-0.7,3.6-1.9c1.8-3.1,2.8-6.6,2.8-10.1
		c0-3.6-0.9-7.1-2.7-10.1l0-0.1c-0.3-0.4-0.4-0.8-0.3-1.3c0.1-0.4,0.3-0.8,0.7-1.1c0.7-0.5,1.8-0.4,2.3,0.3
		c2.3,3.7,3.5,7.9,3.5,12.2c0,4.3-1.2,8.5-3.5,12.2c-1.5,2-1,4.8,1,6.3c0.8,0.6,1.7,0.9,2.7,0.9c1.4,0,2.8-0.7,3.6-1.8
		c3.4-5.2,5.2-11.3,5.2-17.6c0-6.3-1.8-12.3-5.1-17.5l0-0.1c-0.3-0.4-0.4-0.8-0.3-1.3c0.1-0.4,0.3-0.8,0.7-1.1
		c0.7-0.5,1.8-0.4,2.3,0.3c3.8,5.8,5.9,12.6,5.9,19.6L73.4,23.4L73.4,23.4z"/>
	<path class="st1" d="M0,23.1C0,15.5,2.2,8.2,6.4,1.8C7.2,0.7,8.6,0,10,0c1,0,1.9,0.3,2.7,0.9c2,1.5,2.4,4.3,1,6.2l0,0.1
		C10.6,11.9,9,17.4,9,23.1c0,5.6,1.6,11.1,4.7,15.9l0,0c0.5,0.7,1.6,0.8,2.3,0.3c0.4-0.3,0.6-0.7,0.7-1.1c0.1-0.4,0-0.9-0.3-1.2
		l0-0.1c-2.6-4.2-4-8.9-4-13.9c0-4.9,1.4-9.7,3.9-13.8l0-0.1c0.8-1.1,2.2-1.8,3.6-1.8c1,0,1.9,0.3,2.7,0.9c1,0.7,1.6,1.8,1.8,2.9
		c0.2,1.2-0.1,2.4-0.8,3.4c-1.5,2.6-2.3,5.5-2.3,8.5c0,3,0.8,5.9,2.3,8.5l0,0c0.5,0.7,1.6,0.9,2.3,0.3c0.8-0.6,0.9-1.5,0.4-2.4
		l-0.1-0.1c-1-2-1.6-4.1-1.6-6.4c0-2.2,0.5-4.5,1.6-6.4c0.7-1.3,2.1-2.1,3.5-2.1c0.7,0,1.4,0.2,2.1,0.6c1.1,0.6,1.7,2.4,1.6,5.2
		l0,40.3l-0.4,0C14.4,58.4,0.1,42.4,0,23.4V23.1L0,23.1z M2.8,23.4c0.1,16.6,11.8,30.8,28,34V20.5c0-0.1,0-0.2,0-0.4
		c0-0.7,0-2.4-0.4-2.6c-0.1-0.1-0.3-0.1-0.4-0.1c-0.4,0-0.9,0.3-1.3,0.9c-0.6,0.8-1.1,3.1-1.1,4.8c0,1.7,0.4,3.3,1.1,4.8l0,0.1
		c1.3,2.3,0.9,4.8-1.1,6.3c-0.8,0.6-1.7,0.9-2.7,0.9c-1.4,0-2.8-0.7-3.6-1.9c-1.8-3.1-2.8-6.6-2.8-10.1c0-3.6,0.9-7.1,2.7-10.1
		l0-0.1c0.3-0.4,0.4-0.8,0.3-1.3c-0.1-0.4-0.3-0.8-0.7-1.1c-0.7-0.5-1.8-0.4-2.3,0.3c-2.3,3.7-3.5,7.9-3.5,12.2
		c0,4.3,1.2,8.5,3.5,12.2c1.5,2,1,4.8-1,6.3c-0.8,0.6-1.7,0.9-2.7,0.9c-1.4,0-2.8-0.7-3.6-1.8C8,35.4,6.2,29.3,6.2,23.1
		c0-6.3,1.8-12.3,5.1-17.5l0-0.1c0.3-0.4,0.4-0.8,0.3-1.3c-0.1-0.4-0.3-0.8-0.7-1.1c-0.7-0.5-1.8-0.4-2.3,0.3
		C4.8,9.3,2.8,16.1,2.8,23.1L2.8,23.4L2.8,23.4z"/>
</g>
</svg>
